<?xml version="1.0" encoding="UTF-8"?>
<svg id="Layer_1" data-name="Layer 1" xmlns="http://www.w3.org/2000/svg" viewBox="0 0 1080 1080">
  <defs>
    <style>
      .cls-1 {
        fill: #f2b6d5;
      }

      .cls-2 {
        fill: #f74646;
      }

      .cls-3 {
        fill: #fce8f3;
      }
    </style>
  </defs>
  <g>
    <path class="cls-3" d="M743.38,583.07c5.93-5.21,9.46-8.1,10.58-8.66,5.86-4.1,9.79-8.99,11.77-14.67,1.73-5.66,2.4-8.91,1.99-9.74,1.34-5,1.36-8.81.07-11.42l-4.39-14.16-1.7-3.42c-.7-1.41-1.44-2.44-2.23-3.08l-.64-1.92-2.53-4.48-.06-.74c-.8-.17-1.44-.73-1.91-1.68l-1.2-2.43-.46-1.71c-.21.1-.37.05-.47-.16l-.58-1.96c-4.66-6.77-7.3-10.81-7.94-12.09-.3-1.14-1.04-2.87-2.19-5.19-1.23-2.49-2.93-4.87-5.09-7.15l-1.08-2.95c-.14-.29-.55-.58-1.2-.88-.21.11-.3.28-.28.53-3.37-1.38-5.24-1.97-5.61-1.78-.17-.33-1.61-.65-4.34-.94-3.76.53-5.73.62-5.9.29-3.5.75-5.63.81-6.42.16-3.56.73-8.23,1.52-14,2.37l.15.31c-.21.1-.36.05-.46-.15-6.28.99-19.82,5.68-40.66,14.05.1.2.05.36-.16.47-3.7,1.37-8.05,3.27-13.04,5.7,1.35-9.83,2.14-16.6,2.37-20.29.03-.42-.14-1.01-.51-1.77.78-5.61,1.25-9.84,1.44-12.7.03-.55-.11-1.65-.42-3.29.03-.51.18-.94.43-1.3-.21-.43-.29-.97-.25-1.61.07-1.02.26-2.3.59-3.86l-.58-1.78c.23.02.37-.36.42-1.15.12-1.85.14-3.96.06-6.32.26-.4.39-.72.41-.95-.36-1.73-.48-3.35-.39-4.82-1.55-7.74-2.28-12.24-2.2-13.49-.61-7.13-2.88-12.97-6.81-17.53-4.03-4.33-6.51-6.53-7.44-6.59-3.66-3.66-6.95-5.58-9.85-5.77l-14.46-3.28-3.81-.24c-1.57-.1-2.83.03-3.78.38l-1.99-.4-5.14-.05-.67-.32c-.55.61-1.35.88-2.41.82l-2.7-.17-1.71-.46c-.02.23-.14.34-.37.33l-1.99-.48c-8.2.64-13.01.92-14.44.83-1.14-.31-3-.54-5.58-.7-2.77-.18-5.68.1-8.74.83l-3.1-.54c-.33-.02-.78.18-1.36.6-.01.23.09.4.32.51-2.88,2.23-4.33,3.55-4.35,3.97-.37-.02-1.37,1.07-2.99,3.29-1.43,3.52-2.33,5.28-2.7,5.25-1.1,3.4-2.12,5.28-3.07,5.64-1.15,3.45-2.8,7.88-4.95,13.31l.35.02c-.02.24-.13.34-.37.33-2.28,5.93-5,20-8.17,42.23.23.01.34.14.32.37-.74,4.31-1.31,9.62-1.71,15.94-.03.56.02,1.46.18,2.72-.23-.01-.36.1-.37.32.15,1.26.2,2.28.15,3.07l-1.21,19.11-.6,4.06c.23.01.54.59.93,1.73-.13,2.03-.39,4.29-.78,6.76l.17,2.79-.5,2.33.37,10.66c-.39,6.18.95,13.55,4.02,22.08.45.73.87,1.41,1.26,2.05-.3,4.27-.23,6.67.2,7.16.63.72.73,12.62.3,35.68-.79,14.84-1.05,24.43-.8,28.75l-2.15,14.17c.49,2.7-.77,5.93-3.76,9.67-2.62,5.56-3.12,9.27-1.51,11.11l3.42,2.98c2.19,2.51,7.37,3.85,15.55,4.02,4.5-.76,12.54-2.69,24.1-5.82,3.9-.69,15.2-6.26,33.91-16.69l16.43-7.24c18.41-8.78,31.85-14.81,40.37-18.12,1.35-.23,3.1-.61,5.29-1.17,7.91-3.21,14.97-5.57,21.18-7.1l1.4-1.08c15.43-6.16,25.4-10.35,29.92-12.6.38-.18.8-.63,1.28-1.33,5.24-2.13,9.14-3.84,11.72-5.11.49-.25,1.37-.92,2.64-2.01.45-.23.9-.32,1.34-.27.27-.39.69-.73,1.27-1.02.91-.45,2.13-.92,3.64-1.41l1.25-1.4c.1.21.5.14,1.21-.21,1.66-.82,3.49-1.86,5.5-3.12.48.02.82-.02,1.02-.12,1.32-1.18,2.66-2.09,3.98-2.75Z"/>
    <path class="cls-1" d="M583.34,461.92c-.56-7.88-.72-12.43-.49-13.66.29-7.15-1.23-13.23-4.55-18.25-3.45-4.81-5.64-7.3-6.55-7.48-3.17-4.09-6.19-6.41-9.05-6.96l-13.93-5.08-3.75-.72c-1.55-.3-2.81-.33-3.8-.09l-1.92-.65-5.09-.7-.63-.4c-.62.54-1.46.71-2.5.51l-2.66-.51-1.64-.67c-.04.23-.18.32-.41.28l-1.91-.73c-8.21-.39-13.02-.73-14.43-1-1.09-.45-2.91-.91-5.45-1.4-2.73-.52-5.65-.61-8.77-.28l-3-.92c-.32-.06-.79.08-1.43.43-.04.23.04.41.25.54-3.13,1.85-4.74,2.97-4.82,3.39-.37-.07-1.49.89-3.38,2.89-1.86,3.31-2.97,4.94-3.34,4.87-1.52,3.24-2.77,4.97-3.76,5.21-1.57,3.28-3.77,7.47-6.59,12.58l.34.07c-.04.23-.18.32-.4.28-3.01,5.6-7.48,19.21-13.43,40.87.22.04.31.18.27.41-1.15,3.77-2.27,8.39-3.36,13.83-7.01-7.02-11.91-11.75-14.71-14.17-.31-.28-.89-.5-1.72-.66-3.99-4.01-7.07-6.95-9.24-8.83-.42-.36-1.38-.91-2.87-1.66-.39-.33-.64-.71-.77-1.13-.47-.09-.94-.35-1.43-.78-.77-.67-1.67-1.61-2.71-2.81l-1.77-.61c.15-.18-.06-.51-.66-1.03-1.4-1.21-3.07-2.5-5-3.87-.17-.45-.33-.74-.51-.9-1.6-.77-2.95-1.64-4.07-2.61-7.1-3.46-11.12-5.59-12.07-6.41-6.04-3.83-12.07-5.56-18.08-5.19-5.89.59-9.14,1.23-9.75,1.93-5.13.7-8.65,2.15-10.56,4.35l-11.36,9.52-2.5,2.88c-1.03,1.19-1.69,2.27-1.98,3.24l-1.52,1.34-3.15,4.06-.66.34c.15.8-.12,1.61-.81,2.42l-1.77,2.05-1.4,1.08c.18.15.19.32.04.49l-1.58,1.29c-4.45,6.91-7.15,10.91-8.08,12-.93.72-2.25,2.06-3.94,4.02-1.82,2.1-3.36,4.59-4.63,7.46l-2.3,2.14c-.22.25-.33.73-.34,1.45.18.15.37.17.59.05.03,3.64.2,5.59.52,5.86-.24.28.03,1.74.81,4.37,1.94,3.27,2.79,5.05,2.55,5.33,2.04,2.93,2.92,4.88,2.63,5.86,2.05,3,4.58,7,7.6,11.99l.23-.26c.18.15.19.31.04.49,3.34,5.41,12.9,16.09,28.67,32.07.15-.17.32-.18.49-.03,2.98,3.19,6.87,6.87,11.65,11.01.42.36,1.18.87,2.27,1.51-.15.18-.14.34.03.49,1.1.65,1.94,1.22,2.53,1.73l14.48,12.54,2.87,2.94c.15-.17.79-.07,1.94.3,1.54,1.34,3.17,2.91,4.91,4.72l2.33,1.55,1.56,1.81,8.71,6.16c4.69,4.06,11.36,7.45,20.01,10.17.86.08,1.65.16,2.39.24,3.21,2.82,5.17,4.22,5.82,4.18.95-.07,10.48,7.06,28.59,21.36,11.34,9.61,18.81,15.62,22.4,18.04l9.98,10.29c2.44,1.25,4.25,4.2,5.42,8.85,2.84,5.45,5.49,8.1,7.93,7.93l4.45-.92c3.33-.23,7.53-3.54,12.61-9.94,2.12-4.04,5.44-11.61,9.95-22.7,1.81-3.53,4.22-15.89,7.24-37.09l4.18-17.46c4.16-19.97,7.5-34.32,10.02-43.11.64-1.22,1.39-2.84,2.27-4.92,2.24-8.24,4.63-15.29,7.17-21.16l-.02-1.77c4.44-16.01,7.14-26.49,8.08-31.44.08-.41-.01-1.02-.28-1.82,1.48-5.46,2.48-9.6,3.02-12.42.1-.54.1-1.65,0-3.32.09-.5.29-.91.59-1.23-.15-.45-.17-.99-.05-1.63.19-1,.55-2.25,1.08-3.75l-.35-1.84c.23.04.41-.31.56-1.09.35-1.82.63-3.91.85-6.27.3-.37.48-.66.52-.89-.13-1.76-.06-3.38.22-4.83Z"/>
    <g>
      <path class="cls-2" d="M348.6,630.74l-3.46-.82-.56.14-.82-.67c-.45,0-.86-.18-1.24-.55-.19.09-.33.14-.42.14-.77-.37-1.37-.83-1.8-1.36-.58,0-1.23-.83-1.95-2.49l-.56-5.21c0-.21.04-.39.11-.56-.08-1.29-.13-2.88-.14-4.77,0-1.61.02-3.1.09-4.46h-.11s.11-.28.11-.28l-.02-3.59c0-.67-.04-1.18-.12-1.51.07-.6.1-1.45.1-2.55-.01-2.11.03-3.66.11-4.63-.12-3.85-.31-7.21-.59-10.07l.14-.96c-.1-1.16-.29-2.26-.58-3.31.09-.75.18-1.21.27-1.38-.09-.17-.14-.35-.14-.56l.14-.28c-.19-.17-.33-1.08-.44-2.75,0-.34.09-1.35.26-3.03-.14-1.44-.24-2.22-.29-2.36l.27-1.94c-.19-.3-.28-.71-.29-1.23,0-.79.04-1.56.13-2.33-.09-.17-.19-.59-.29-1.26.09-.94.13-1.67.13-2.19l-.44-2.89.14-.7-.02-3.31h-.14c-2.35.74-3.91,1.12-4.68,1.12-1.91.01-3.79-1.08-5.66-3.28-.38-.58-.61-1.31-.71-2.18-.21-.19-.48-1.06-.83-2.63.15-.3.37-1.45.65-3.45.09,0,.14-.08.14-.25l-.42-.7.55-1.38c-.1-.5-.15-.92-.15-1.23,0-.8.59-1.55,1.78-2.23,0-.64.73-.96,2.21-.96,1.01-.27,5.74-.76,14.19-1.48,4.63-.66,8.08-1,10.34-1.01.95,0,1.73.04,2.33.13.34-.09.84-.14,1.51-.15,1.07,0,2.41.45,4.02,1.35.79,0,1.34.59,1.66,1.79.32,0,.59.31.82.95v.7c.19.04.29.13.29.28v.67c.23,0,.64.64,1.25,1.93.73.2,1.38,1.08,1.95,2.63.3.5.49,1.14.57,1.9.19.04.28.13.28.28v.56c-.15.21-.28.62-.41,1.24l.14.28v1.37c-.31.25-.63.75-.96,1.52l-.25.14-2.22-.13c-.15,0-.43.1-.84.29-1.4-.09-2.64-.13-3.7-.12-3.03.02-4.54.39-4.54,1.12v1.8c.01.75-.03,1.35-.12,1.8.1.58.15,1.22.15,1.93v.84s-.13.81-.13.81c.12,1.12.3,2.18.55,3.17h-.14c.09.19.14.33.14.42,0,1.33.07,3.35.17,6.06l-.14.56c.1.35.15.97.15,1.85,0,.6.05.9.15.9-.09.17-.18.58-.27,1.24l.14.7-.14.84.15,1.51-.13,1.38c.1.78.15,1.43.15,1.93l-.14.67.3,3.45h-.14s.14.28.14.28v.28c0,.26-.04.39-.14.39l.14.84.33,8.13c0,.21.05.39.14.56-.09.15-.14.51-.13,1.09,0,.47.05.7.14.7,0,.07-.05.11-.14.11l.15.98v.28c0,1.05-.03,2.66-.11,4.83-.28.1-.42.37-.42.82l.02,3.31c0,.54-.04,1.28-.13,2.22,0,.09.05.14.14.14l-.14.67.04,7.88c0,.21.05.38.14.53-.17.34-.3,1.35-.4,3.03-.24.45-.51,1.33-.8,2.64-.19,0-.55.37-1.09,1.1-.49.1-.95.29-1.4.57-.15-.09-.33-.14-.53-.14,0,.24-.23.47-.7.68-.15-.07-.33-.11-.53-.11-.09,0-.37.18-.84.54l-.96-.13c0,.09-.19.28-.56.56Z"/>
      <path class="cls-2" d="M381.92,645.7h-.39s0-.28,0-.28h-.42s-.28.14-.28.14c0-.17-.1-.25-.28-.25-.26,0-.63.09-1.09.26l-.28-.14-.81.15c-.23-.15-1.05-.37-2.47-.66,0-.37-.97-.78-2.9-1.22-.09,0-.84-.59-2.23-1.78h-.14v-.14c-.65-3.14-.99-5.66-1-7.57,0-.58.04-1.26.13-2.05-.2-2.11-.31-5.23-.33-9.37,0-1.05-.06-1.87-.15-2.47.09-.73.21-3.48.38-8.25l.14-.28-.14-.28.14-.81c0-.21-.05-.39-.14-.56l.14-.28c-.08-.92-.18-1.37-.29-1.37l.14-.81c-.01-2.04-.08-6.81-.22-14.31,0-.71.08-2.92.24-6.62l-.14-.25.26-3.45c0-1.08-.34-1.86-.99-2.32v-.14s.56-.42.56-.42h.28s.39.28.39.28l.84-.15c.28.09.42.19.42.28l.53-.28c1.52.53,2.39.8,2.61.8.22-.19.68-.32,1.37-.4.36.07.73.11,1.12.11h.14c.04.37.17.56.4.56,0-.13.14-.27.42-.42.62,0,1.17.32,1.66.97h.28c.02-.19.1-.28.25-.28.71.15,1.68.69,2.9,1.64.69,0,1.7.63,3.04,1.89,0,.17.28.72.85,1.65,0,.15.13.84.4,2.07l-.1,2.05.13,2.5c-.05.54-.14.81-.25.81.09.21.18.9.26,2.08-.07.49-.11.9-.11,1.23.36.52.59,1.66.69,3.42l-.14.56c.21,3.57.4,5.36.59,5.35l-.14.56c.1,1.72.2,2.78.3,3.17-.09.17-.14.3-.14.39l.15,1.26c-.19.28-.28.51-.28.67,0,.21.05.39.14.56-.09.49-.14.9-.13,1.23l.58,2.75-.13,1.09.15.84c-.25,1.74-.43,2.61-.55,2.61l.14.53-.13,2.22.14.28c-.09.54-.18.81-.28.81l.15.95.02,4.26c0,.34.05.76.15,1.26,0,.07-.05.11-.14.11l.14.7c0,.41-.04.68-.14.81.1.79.15,1.43.15,1.94v1.51c.02,2.28-.33,3.89-1.04,4.82-.72.93-1.22,1.4-1.52,1.4-1.04,1.18-2,1.78-2.88,1.78,0-.17-.09-.25-.28-.25-.56,0-.84.18-.84.54ZM385.55,575.53l-.98-.13c-.5.1-.87.14-1.09.15-.82-.11-1.24-.25-1.24-.41-.3.19-.58.28-.84.29-.08,0-.11-.05-.11-.14-.19.09-.33.14-.42.14-.17-.02-.53-.24-1.1-.67l-.7.14c0-.3-.46-.58-1.38-.83,0-.3-.65-.57-1.94-.8-.57-.82-1.16-1.23-1.77-1.22,0-.17-.41-.4-1.24-.69-1.3-1.11-1.95-1.98-1.95-2.6-.28-.67-.57-2.37-.87-5.1l.26-4.27-.14-.53.13-1.09c-.1-1.21-.15-2.22-.16-3.03-.13,0-.31-.18-.54-.56,0-.13.18-.27.53-.42.28.09.42.18.42.28l.28-.14h.42c.17.04.25.13.25.28l.7-.14h.14c1.25.33,2.03.65,2.33.97.15-.47.43-.7.84-.71,0,.06.27.33.82.81.09,0,.14-.04.14-.11l2.19.52c.17-.09.35-.14.56-.14.19.34,1.34.97,3.46,1.92,1.37,1.15,2.47,1.88,3.29,2.17,0,.71.24,1.35.71,1.93l.83,3.16c.38,1.31.8,2.46,1.25,3.47-.06,1.89-.19,3.16-.37,3.82,0,.09.05.14.14.14-.12,1.55-.4,2.33-.83,2.33,0,.56-.68.98-2.04,1.25Z"/>
      <path class="cls-2" d="M457.35,650.79c-6.25-.3-9.37-.74-9.38-1.32-.07,0-2.15-.91-6.21-2.71,0-.24-1.29-.87-3.85-1.89-1.35-.54-2.78-1.44-4.28-2.73-1.11-.78-2.03-1.74-2.76-2.87,0-.41-.23-.74-.68-.98-1.25-2.11-2.32-4.9-3.22-8.37l-.29-2.47v-.28c.71-2.38,1.07-4.58,1.06-6.6l.83-2.75v-.28c-.08,0-.45-.14-1.13-.41v-.28c.54-.45,1.45-.78,2.74-.97.54.09,1.79.22,3.73.4.09-.28.36-.42.81-.42h.98s.81.13.81.13l.28-.14.81.13c.3-.19.53-.28.7-.28,1.01.54,2.48.94,4.41,1.21,1.67,1.54,2.59,2.31,2.76,2.31.45,0,.68.96.69,2.88-.15.19-.28.97-.38,2.36l.14.67c-.26,2.92-.4,4.53-.39,4.83.19.39.56,1.95,1.12,4.68l1.11,3.02c.56.76.85,1.49.85,2.18.39,0,.71.5.96,1.51.73.72,1.33,1.09,1.8,1.08.6-.56,1.27-1.9,2.03-3.99,0-.47.27-1.66.82-3.57l.51-3.59c-.09-.17-.14-.31-.14-.42l.14-.81c0-.47-.09-.7-.26-.7l.11-.67c-.96-4.63-1.85-7.29-2.65-7.98-1.32-1.64-2.51-2.96-3.58-3.96-.23-1.55-.6-2.33-1.11-2.32,0-.17-.84-1.03-2.51-2.59-.25-.8-.94-1.72-2.06-2.74-.49-.58-1.33-1.72-2.52-3.44-1.01-.93-1.52-1.57-1.52-1.93v-.53c-.4,0-.76-.5-1.11-1.51-1.04-1.32-2.23-3.29-3.59-5.9-.84-2.43-1.63-4.54-2.39-6.33l-.55-2.75-.56-.42.13-.96v-.81c-.84-2.24-1.31-3.71-1.4-4.4.13-.32.31-.6.56-.84l-1.42-7.68c.07-.28.16-.42.25-.42l-.14-.7v-1.23c0-.21.04-.38.13-.53-.1-.92-.19-1.37-.26-1.37l.11-.28v-1.79c.49-4.42,1.39-8.13,2.71-11.15.91-1.2,1.68-2.45,2.31-3.74,2.12-2.67,6.1-4.02,11.96-4.05,0-.09,1.28-.19,3.84-.3,3.57.36,5.36.67,5.36.95l.28-.14c6.22,1.87,10.81,4.5,13.79,7.89,1.96,2.36,3.12,4.24,3.48,5.62.24,0,.66,1.24,1.25,3.72l.87,5.21c-.09.19-.14.33-.14.42.17.35.26.67.26.95l-.11.28c.08.45.21,1.6.41,3.45,0,.09-.05.23-.14.39.1.5.15.92.15,1.23,0,.47-.09,1.02-.27,1.66.1.62.15,1.21.15,1.79-.36,0-.53.37-.53,1.1-.19,0-.37.38-.55,1.12l-.95.82c-.31.92-.54,1.38-.69,1.38l-.39-.28-.56.42h-.14s-.42-.28-.42-.28h-.14s-.11.56-.11.56l-.98-.13c0,.21-.22.35-.67.42l-.56-.28-.81.4c-1-.82-1.6-1.22-1.8-1.22-.69,0-1.66-.4-2.9-1.22-.94-.11-1.76-.51-2.48-1.22-1.57-.61-2.54-1.43-2.9-2.45-.4-.75-.83-3.77-1.29-9.08-.01-2.75-.35-4.12-1-4.12-.19-.43-.42-2.31-.7-5.63-.52-2.65-.99-4.21-1.4-4.68h-.28c-1.82,1.84-2.73,3.18-2.73,4-.91,1.74-1.58,4.59-2.03,8.54l.14.28-.13,1.38.15,1.09c0,.11-.05.25-.14.42,0,.49.62,3.65,1.85,9.5.01,1.98,1.46,6.83,4.34,14.53,1.68,3.36,3.77,6.66,6.25,9.9,2.77,2.86,4.15,4.69,4.15,5.48,1.26,1.21,2,2.39,2.21,3.55l2.38,3.86c1.28,1.3,1.92,2.53,1.93,3.69,1.6,4.74,2.4,7.94,2.41,9.61v.56s-.94,7.97-.94,7.97c-.75,2.02-1.25,3.18-1.5,3.46-.92,2.46-2.24,4.11-3.96,4.96-1.79,1.3-4.39,2.23-7.81,2.79l-.28-.11c-.6.17-1.01.26-1.23.26Z"/>
      <path class="cls-2" d="M492.56,637.1c-.3-.18-.57-.28-.82-.28h-.84s-.95.15-.95.15c0-.15-.19-.33-.56-.56-.09.28-.36.42-.81.42,0-.28-.51-.55-1.52-.8,0,.17-.09.25-.28.25-1.09-.54-1.69-.8-1.8-.8-.3.19-.52.28-.67.29-.47-.41-.8-.87-.99-1.37-.39,0-.71-.23-.96-.7-.34,0-.61-.41-.82-1.23l.14-.67-1.3-6.33.14-.28c-.46-1.68-1.18-8.5-2.16-20.47h.14l-.14-.28v-.14c0-.92-.06-2.02-.16-3.31l.14-.28c0-.09-.05-.14-.14-.14l.38-8.11c0-1.78-.12-4.8-.33-9.09.09-1.2.13-2.16.12-2.89,0-1.1-.11-2.89-.31-5.36,0-.09.05-.14.14-.14l-.14-.53c0-1.5-.06-2.88-.16-4.15-.06-11.01,1.28-17.58,4.01-19.69.26-.73,2.08-1.8,5.48-3.2,1.04-.25,2.37-.48,3.98-.7,2.41-.65,6.3-1.27,11.69-1.86,5.89-.03,11.18,1.96,15.85,5.97,3.09,1.65,5.59,5.21,7.49,10.68.48,2.95.73,4.56.73,4.82l-.13.95c.19.6.29,1.02.29,1.26-.32.62-.54,1.9-.68,3.85-.94,3.39-1.79,5.09-2.58,5.09-.35.84-1.08,1.72-2.2,2.62,0,.21-.59.49-1.76.85-2.25,1.66-4.77,2.95-7.55,3.89-.88.28-1.43.43-1.65.43l-.81-.14-.56.28-.81-.14c-.28,0-1.21.1-2.77.3-.66-.28-1.71-.6-3.15-.97,0-.15-.55-.32-1.66-.52,0-.08-.7-.44-2.08-1.08,0-.28-.27-.51-.82-.7,0-.11-.32-.38-.96-.81-.54,0-.92.32-1.12.96.2,2.04.3,3.27.3,3.7l-.14.28c0,.21.15,1.4.44,3.59-.18.69-.27,1.67-.26,2.95,0,.79-.04,1.18-.13,1.18,0,.09.05.14.14.14l-.26,3.99c0,.37.05.88.15,1.51-.08,1.63-.12,3-.12,4.12,0,.56.16,2.8.46,6.73v.98c-.18.64-.27,1.3-.26,1.99,0,.97.06,1.78.15,2.41-.11.13-.2.59-.27,1.38h.14s-.14.25-.14.25v2.36s.31,3.28.31,3.28v.84c0,.43-.04.89-.13,1.38.1.35.14.72.15,1.09-.2,1.48-.33,2.22-.41,2.22l.14.67.02,3.17-.8,1.66.14.67c0,.17-.32.45-.98.85-.22.54-.63.82-1.23.82l-.53-.14-.42.56ZM496.62,574.75c3.25-.47,5.27-1.07,6.05-1.8,2.87-1.7,4.74-3.04,5.62-4.04,1.26-1.76,1.89-3.92,1.87-6.46v-1.79c-.03-3.16-.91-5.59-2.66-7.28-.36-.09-1.32-.18-2.89-.26-2.32.01-4.51.72-6.58,2.11-.72.79-1.27,2.26-1.63,4.41h-.14c.19.3.28.52.28.67-.08,1.85-.22,3.05-.4,3.59,0,.28.14.42.42.42,0,1.72-.03,3.6-.11,5.64.1.62.15,1.12.15,1.51l-.42.68v2.22s.44.39.44.39Z"/>
      <path class="cls-2" d="M554.74,640.18c-3.95-.22-6.61-.66-7.97-1.33-1.39-.52-3.64-2.24-6.76-5.18-1.16-.35-2.82-1.62-4.99-3.82-3.39-4.28-5.38-8.22-5.98-11.8-1.23-5.38-1.85-9.87-1.87-13.48.09-1.24.17-3.62.24-7.16l.14-.25c-.09-.19-.14-.33-.14-.42.42-8.81.72-13.22.91-13.22l-.14-.56c1.1-13.26,2.25-21.29,3.43-24.09.72-1.54,1.58-3.09,2.58-4.67.91-1.13,1.36-2.05,1.36-2.78,0-.17-.04-.25-.11-.25.79-2.25,2.01-4.42,3.67-6.5,1.6-1.47,2.92-2.3,3.97-2.49l-.14-.7h.14c1.2.12,1.8.26,1.8.41l.95-.15h.28s2.08.27,2.08.27c.15,0,.42-.09.81-.28.51.09.96.13,1.38.13.54,0,.81-.1.81-.29l.28.14h.28c.39,0,.76-.1,1.09-.29v.14c.19-.09.33-.14.42-.14l1.24.13c.3-.19.53-.28.7-.29,1.93.46,3.35.95,4.27,1.49,1.69.68,3.99,2.37,6.9,5.07,3.14,3.18,4.72,5.7,4.73,7.55.21,1.01.53,1.69.96,2.04,1.24,6.99,1.87,12.9,1.89,17.75.11.26.21.39.28.39l-.14.28v.28c0,.39.09.76.26,1.09l-.1,1.66.12,1.93h-.11s.11.28.11.28v.67s-.1.95-.1.95h.11s-.11.28-.11.28l.12,1.23c0,.19-.04.28-.11.28l.12.84-.07,7.29.12.67c-.07.36-.11.93-.1,1.71,0,.9.05,1.52.12,1.88-.07.47-.11.93-.1,1.38v1.23c-.27.8-.41,1.26-.41,1.38v1.91c.01.39-.03.77-.12,1.12l.29,1.91c-.19.3-.28.58-.28.84v1.66c.02,1.48-.24,3.58-.77,6.32,0,.09.04.14.11.14-.16,1.37-.38,2.47-.66,3.31,0,.45-.18.96-.55,1.52l.14.28c-.35.6-.57,1.6-.66,3.01-.36,2.25-1.4,5.42-3.12,9.53-2,3.02-3.73,4.77-5.19,5.25-2.59,1.66-5.39,2.5-8.4,2.51ZM550.7,630.3c1.08-1,2.08-3.15,2.99-6.47l2.42-8.4c.79-6.34,1.16-12.91,1.12-19.7l-.05-9.34c0-.34-.04-.75-.12-1.23.07-.19.11-.33.11-.42l-.12-1.79.11-.67c-.12-1.23-.21-1.97-.26-2.22l.14-.81c-.11-2.9-.26-4.82-.45-5.78,0-.19.04-.28.14-.28-.1-.5-.14-.87-.15-1.09-.02-3.2-.41-7.78-1.17-13.74-.28-.67-.67-2.42-1.15-5.24-.49-.82-.81-1.23-.96-1.23-1.62,1.93-2.48,3.31-2.59,4.14-1.19,1.58-2.18,4.11-2.99,7.59l-.79,3.99c-.44.79-.76,1.99-.96,3.6.1.6.15,1.23.15,1.91-.19,2.54-.41,4.25-.65,5.11,0,.09.05.14.14.14l-.14.67v.28c0,.52.05.84.15.95-.28,3.87-.54,6.4-.8,7.58l.14.28v2.19c.02,1.33-.02,2.84-.1,4.54.1.35.14.72.15,1.09l-.28.56c.1,1.25.15,2.12.15,2.61,0,.21-.04.71-.13,1.51.09.17.14.36.14.56-.28.73-.41,1.19-.41,1.38.1.6.15,1.2.15,1.79,0,.07-.05.11-.14.11l.14.28c0,.21-.04.71-.13,1.52l.15.98c-.09.64-.13,1.18-.13,1.63.19.95.54,3.84,1.03,8.66.13.21.36,1.54.7,4.01.17,1.33.73,2.96,1.65,4.9.93,1.94,1.81,3.23,2.66,3.86h.14Z"/>
      <path class="cls-2" d="M610.22,649.95c-6.25-.3-9.37-.74-9.38-1.32-.08,0-2.15-.91-6.21-2.71,0-.24-1.29-.87-3.85-1.89-1.35-.54-2.78-1.44-4.28-2.72-1.11-.78-2.03-1.74-2.76-2.88,0-.41-.23-.74-.68-.98-1.25-2.11-2.32-4.9-3.22-8.37l-.29-2.47v-.28c.71-2.38,1.07-4.58,1.06-6.6l.83-2.75v-.28c-.08,0-.45-.14-1.13-.41v-.28c.54-.45,1.45-.78,2.74-.97.54.09,1.79.22,3.73.4.09-.28.36-.42.81-.42h.98s.81.13.81.13l.28-.14.81.13c.3-.19.53-.28.7-.28,1.01.54,2.48.94,4.41,1.21,1.67,1.54,2.59,2.31,2.76,2.31.45,0,.68.96.69,2.88-.15.19-.28.97-.38,2.36l.14.67c-.26,2.92-.4,4.53-.39,4.83.19.39.56,1.95,1.12,4.68l1.11,3.02c.56.76.85,1.49.85,2.18.39,0,.71.5.96,1.51.73.72,1.33,1.09,1.8,1.08.59-.56,1.27-1.9,2.02-3.99,0-.47.27-1.66.82-3.57l.51-3.59c-.09-.17-.14-.31-.14-.42l.14-.81c0-.47-.09-.7-.26-.7l.11-.67c-.96-4.63-1.84-7.29-2.65-7.98-1.32-1.64-2.51-2.96-3.58-3.96-.23-1.55-.6-2.33-1.11-2.32,0-.17-.84-1.03-2.51-2.59-.25-.8-.93-1.72-2.06-2.74-.49-.58-1.33-1.72-2.52-3.44-1.01-.93-1.52-1.57-1.53-1.93v-.53c-.4,0-.76-.5-1.1-1.51-1.04-1.32-2.23-3.29-3.6-5.9-.84-2.43-1.63-4.54-2.39-6.33l-.55-2.75-.56-.42.13-.96v-.81c-.84-2.24-1.31-3.71-1.4-4.4.13-.32.31-.6.56-.84l-1.42-7.68c.07-.28.16-.42.25-.42l-.14-.7v-1.23c0-.21.04-.38.13-.53-.1-.92-.19-1.37-.26-1.37l.11-.28v-1.79c.49-4.42,1.39-8.13,2.71-11.15.91-1.2,1.68-2.45,2.31-3.74,2.12-2.67,6.1-4.02,11.96-4.05,0-.09,1.28-.19,3.84-.3,3.57.36,5.36.67,5.36.95l.28-.14c6.22,1.87,10.82,4.5,13.79,7.89,1.96,2.36,3.12,4.24,3.48,5.62.24,0,.66,1.24,1.25,3.72l.87,5.21c-.09.19-.14.33-.14.42.17.35.26.67.26.95l-.11.28c.08.45.21,1.6.41,3.45,0,.09-.05.23-.14.39.1.5.15.92.15,1.23,0,.47-.09,1.02-.27,1.66.1.62.15,1.21.15,1.79-.36,0-.53.37-.53,1.1-.19,0-.37.38-.55,1.12l-.95.82c-.31.92-.54,1.38-.69,1.38l-.39-.28-.56.42h-.14s-.42-.28-.42-.28h-.14s-.11.56-.11.56l-.98-.13c0,.21-.22.35-.67.42l-.56-.28-.81.4c-1-.82-1.6-1.22-1.8-1.22-.69,0-1.66-.4-2.9-1.22-.94-.11-1.76-.51-2.48-1.22-1.57-.61-2.54-1.43-2.9-2.45-.4-.75-.82-3.77-1.28-9.08-.02-2.75-.35-4.12-1-4.12-.19-.43-.42-2.31-.7-5.63-.52-2.65-.99-4.21-1.4-4.68h-.28c-1.82,1.84-2.73,3.18-2.73,4-.91,1.74-1.58,4.59-2.03,8.54l.14.28-.13,1.38.15,1.09c0,.11-.05.25-.14.42,0,.49.62,3.65,1.85,9.5.01,1.98,1.46,6.83,4.34,14.53,1.68,3.36,3.77,6.66,6.25,9.9,2.77,2.86,4.15,4.69,4.15,5.48,1.26,1.21,2,2.39,2.21,3.55l2.38,3.86c1.28,1.3,1.92,2.53,1.93,3.69,1.6,4.74,2.4,7.94,2.41,9.61v.56s-.94,7.97-.94,7.97c-.75,2.02-1.25,3.18-1.5,3.46-.92,2.46-2.24,4.11-3.96,4.96-1.79,1.3-4.39,2.23-7.81,2.79l-.28-.11c-.6.17-1.01.26-1.23.26Z"/>
      <path class="cls-2" d="M656.45,639.62c-3.95-.22-6.61-.66-7.97-1.33-1.39-.52-3.64-2.24-6.76-5.18-1.16-.35-2.82-1.62-4.99-3.82-3.39-4.28-5.38-8.22-5.98-11.8-1.23-5.38-1.85-9.87-1.87-13.48.09-1.24.17-3.62.24-7.16l.14-.25c-.09-.19-.14-.33-.14-.42.42-8.81.72-13.21.91-13.22l-.14-.56c1.1-13.26,2.25-21.29,3.43-24.09.72-1.54,1.58-3.09,2.58-4.67.91-1.13,1.36-2.06,1.36-2.79,0-.17-.04-.25-.11-.25.79-2.25,2.01-4.42,3.67-6.5,1.6-1.47,2.92-2.3,3.97-2.49l-.14-.7h.14c1.2.12,1.8.26,1.8.41l.95-.15h.28s2.08.27,2.08.27c.15,0,.42-.09.81-.28.51.09.96.13,1.38.13.54,0,.81-.1.81-.28l.28.14h.28c.39,0,.76-.1,1.09-.29v.14c.19-.09.33-.14.42-.14l1.24.13c.3-.19.53-.28.7-.29,1.93.46,3.35.95,4.27,1.49,1.69.68,3.99,2.37,6.9,5.07,3.14,3.18,4.72,5.7,4.73,7.55.21,1.01.53,1.69.96,2.04,1.24,6.99,1.87,12.9,1.89,17.75.11.26.21.39.28.39l-.14.28v.28c0,.39.09.76.26,1.09l-.1,1.66.12,1.93h-.11s.11.28.11.28v.67s-.1.95-.1.95h.11s-.11.28-.11.28l.12,1.23c0,.19-.04.28-.11.28l.12.84-.07,7.29.12.67c-.07.36-.11.93-.1,1.71,0,.9.05,1.52.12,1.88-.07.47-.11.93-.1,1.38v1.23c-.27.8-.41,1.26-.41,1.38v1.91c.01.39-.03.77-.12,1.12l.29,1.91c-.19.3-.28.58-.28.84v1.66c.02,1.48-.24,3.58-.77,6.32,0,.09.04.14.11.14-.16,1.37-.38,2.47-.66,3.31,0,.45-.18.96-.55,1.52l.14.28c-.35.6-.57,1.6-.66,3.01-.36,2.25-1.4,5.42-3.12,9.53-2,3.02-3.73,4.77-5.19,5.25-2.59,1.66-5.39,2.5-8.4,2.51ZM652.41,629.74c1.08-1,2.08-3.15,2.99-6.47l2.42-8.4c.79-6.34,1.16-12.91,1.12-19.7l-.05-9.34c0-.34-.04-.75-.12-1.23.07-.19.11-.33.11-.42l-.12-1.79.11-.67c-.12-1.23-.21-1.97-.26-2.22l.14-.81c-.11-2.9-.26-4.82-.45-5.78,0-.19.04-.28.14-.28-.1-.5-.14-.87-.15-1.09-.02-3.2-.41-7.78-1.17-13.74-.28-.67-.67-2.42-1.15-5.24-.49-.82-.81-1.23-.96-1.23-1.62,1.93-2.48,3.31-2.59,4.14-1.19,1.58-2.18,4.11-2.99,7.59l-.79,3.99c-.44.79-.76,1.99-.96,3.6.1.6.15,1.23.15,1.91-.19,2.54-.41,4.25-.65,5.11,0,.09.05.14.14.14l-.14.67v.28c0,.52.05.84.15.95-.28,3.87-.54,6.4-.8,7.58l.14.28v2.19c.02,1.33-.02,2.84-.1,4.54.1.35.14.72.15,1.09l-.28.56c.1,1.25.15,2.12.15,2.61,0,.21-.04.71-.13,1.51.09.17.14.36.14.56-.28.73-.41,1.19-.41,1.38.1.6.15,1.2.15,1.79,0,.07-.05.11-.14.11l.14.28c0,.21-.04.71-.13,1.52l.15.98c-.09.64-.13,1.18-.13,1.63.19.95.54,3.84,1.03,8.66.13.21.36,1.54.7,4.01.17,1.33.73,2.96,1.65,4.9.93,1.94,1.81,3.22,2.66,3.86h.14Z"/>
      <path class="cls-2" d="M698.42,594.99c-.77-.46-1.28-.69-1.52-.69-.09,0-.23.05-.42.14-.3-.17-.57-.25-.82-.25-.21,0-.39.04-.56.12-.34-.3-1.3-.56-2.89-.8-1.14-.61-2.43-1.06-3.85-1.35-1.16-.46-1.95-1.28-2.37-2.46-.83-1.4-1.59-6.99-2.28-16.79,0-1.61-.64-6.97-1.88-16.09-.38-4-.57-6.51-.57-7.54l.53-.42h.7c.18-.38.41-.57.67-.57l.7.14c1.61-.36,2.52-.55,2.75-.55l.28.14c1.31-.66,2.9-1,4.79-1.01,0-.09.37-.19,1.12-.29.09.09.82.18,2.19.27l.28-.14c1.27.27,2.19.64,2.75,1.11l.7-.14c1.84,1.77,2.77,3.14,2.77,4.11.1.49.15,1.2.15,2.13,0,1.31-.03,2.25-.12,2.81.1.49.15,1.04.15,1.65l-.13,1.38c.18,1.33.26,2.24.27,2.75h-.11c.17.47.26.79.26.98,0,.09-.04.22-.14.39l1.02,7.43-.14.28c.17.37.35,1.38.55,3.03l-.11.28.11.28-.11.81c.09,2.45.23,4.37.42,5.78-.18.47-.28.79-.27.96.1.65.15,1.21.15,1.65,0,.21-.04.39-.14.56.19.88.29,2.11.3,3.7v1.12c-.25.26-.43.76-.52,1.49.09.17.14.36.14.56v.28c-1,.6-1.51.97-1.51,1.1,0,.22-.46.46-1.37.71-.52.49-1.17.81-1.93.96ZM703.09,617.65c-.21,0-.39-.04-.56-.14-.15.09-.33.14-.53.14l-1.41-.52c0,.19-.08.28-.25.28h-.14l-.42-.28-.95.29c-.17-.09-.36-.14-.56-.14,0,.17-.09.25-.28.25-.34-.35-.93-.58-1.77-.66-.04-.19-.32-.33-.84-.42l-.81.14c0-.19-.14-.28-.42-.28-.3,0-.53.05-.7.14-2.66-1.12-4-2.31-4-3.54-1.21-2.35-1.83-5.61-1.85-9.78-.11,0-.2-.27-.26-.81.31-.82,1.45-1.24,3.42-1.25,0-.09.55-.14,1.65-.15.07-.28.26-.47.56-.56.73.28,1.63.41,2.7.41.39,0,.87-.15,1.43-.43,0,.17,1.11.3,3.31.4.17-.09.3-.14.39-.14l.56.28c.17-.09.31-.14.42-.14.67.46,1.59.87,2.75,1.22,1.84,1.6,2.76,2.65,2.77,3.15.1,1.05.24,1.92.44,2.61v1.09s-.41,1.8-.41,1.8l.14.28c0,1.37-.27,2.24-.83,2.61,0,.67-.54,1.55-1.64,2.62v.56c-.3-.19-.52-.28-.67-.28-.28.83-.69,1.24-1.23,1.24Z"/>
    </g>
  </g>
  <g>
    <path class="cls-2" d="M441.51,536.41c-.94.05-2.48-.34-4.63-1.18-1.4-.82-2.61-1.67-3.63-2.53-.76-.33-1.8-1.24-3.12-2.74-1.42-1.48-2.16-2.73-2.21-3.77-.26.01-.48-1.38-.66-4.18-.09-1.83.29-4.04,1.15-6.63l-.08-.18v-.27c0-.12.04-.18.14-.19.22.11.49.15.81.14.18-.13.35-.2.51-.21.06,0,.09.03.09.08l.35-.11c1.12,0,1.85,0,2.2-.02,0,.08.25.25.72.5.01.22.25.36.72.39.25.23.38.4.38.52h.18s.42-.12.42-.12c.02.4.3.59.83.56l.76,1.2.04.7-.24.46c0,.12.04.18.1.18l-.06.61c.01.21.05.47.13.78-.15.5-.24,1.55-.27,3.18.46,2.3.7,3.55.71,3.75.64,1.67,1.43,2.71,2.36,3.13.02.11.08.16.19.15h.09c1.11-1.09,1.63-2.46,1.54-4.12l.18-1.76c-.19-1.49-.41-2.73-.64-3.74.05-.11.08-.23.07-.36-.12,0-.18-.08-.19-.26l.05-.79c-.25.01-.58-.64-.97-1.97-.11,0-.27-.34-.5-1.03l.07-.45c-.05-.43-.63-1.56-1.75-3.41-.01-.25-.27-.56-.76-.93-.82-1.44-1.24-2.32-1.26-2.67-.06,0-.54-.73-1.43-2.21-.43.02-.81-.57-1.14-1.78-.67-.53-1.55-2.21-2.63-5.05-1.17-3.51-1.79-6.17-1.89-7.98l.13-.63v-.07c-.03-.55-.2-1.1-.52-1.65-.04-.79-.09-1.25-.16-1.39.04-.45.16-.9.36-1.34-.12-.19-.18-.36-.19-.53-.09-1.75,1.25-4.21,4-7.4,1.12-.94,2.53-1.45,4.23-1.54l1.14-.06.54.06c.09-.06.23-.1.42-.11.3-.02.74,0,1.32.02l.35-.11c.06,0,.14.02.25.08,1-.11,1.49-.19,1.49-.24,2.17-.11,4.45.33,6.84,1.31,1.3.71,2.24,1.33,2.81,1.88.71.38,1.47,1.57,2.29,3.56.17.38.42,1.34.75,2.88,0,.06-.02.14-.08.25.17.96.26,1.68.29,2.18.01,2.65.03,4.21.06,4.66-.15.26-.23.46-.22.62h-.09c-.01-.22-.08-.33-.2-.33-.08.5-.27.98-.55,1.42-.2-.11-.37-.16-.53-.15-.21,0-.67.18-1.38.52l-.35-.16c-.35.07-.53.13-.53.21-.33-.09-.6-.25-.81-.48-.37.02-.85-.22-1.45-.73v-.09s-.43.11-.43.11c-.61-.67-1-1-1.19-.99-.12,0-.37-.21-.75-.66-.21.01-.49-.21-.82-.65,0-.06.02-.09.08-.09-.47-1.26-.75-2.3-.85-3.12.1-.34.12-1.25.04-2.73l-.06-1.21c-.15-1.86-.45-2.96-.88-3.3l-.34.02c-.31.02-.59.26-.84.74-.83.76-1.41,1.61-1.73,2.55-.12,0-.19.24-.21.71.11.02.17.07.17.17-.25.82-.33,2.02-.25,3.6.05.94.43,2.77,1.15,5.48.76,2.27,1.22,3.86,1.38,4.76,1.07,2.52,1.82,4.06,2.25,4.64.55,1.16,1.38,2.56,2.5,4.18.06,0,.15.17.28.5-.04.12-.06.21-.06.27.46,1.07,1.2,2.5,2.24,4.28,1.12,2.5,1.71,4.4,1.77,5.7.03.5.1.88.24,1.13,0,1.76-.1,2.82-.29,3.18.14,2.72,0,4.54-.42,5.47l-.78,1.88c-.48.67-.89,1.3-1.23,1.9-.18,0-.57.41-1.17,1.2-1.04.64-2.21,1.11-3.52,1.41l-1.57.35-1.22-.03c-.18.13-.33.19-.44.2Z"/>
    <path class="cls-2" d="M466.78,540.15c-1.84-.09-3.29-.36-4.35-.83,0-.19-.37-.32-1.07-.39,0-.19-.53-.49-1.55-.89-.37-.45-.56-.87-.58-1.27-.01-.21.02-.71.1-1.51-.12,0-.18-.08-.19-.26-.05-1.08-.07-1.96-.04-2.62-.12-1.29-.22-2.49-.27-3.59l.05-18.01-.11-.42.1-1.5-.12-.69c.01-2.57.06-3.98.14-4.22,0-.06-.04-.09-.09-.08.02-.67.07-1.05.12-1.15-.07-.24-.21-1.19-.41-2.88,0-.06.02-.09.08-.09,0-.06-.04-.15-.1-.26-.18-3.49-.01-7.16.5-11,.04-1.62.05-2.59.03-2.89v-.27c-.45-.42-.67-.67-.68-.75h.18s0-.19,0-.19c-.25-.21-.41-.62-.49-1.21-.06-1.2.25-2.5.93-3.91-.02-.38.71-1.09,2.18-2.13,1.45-.61,3.36-.97,5.75-1.1.64.03,1.49.02,2.54-.04.37-.02.81-.07,1.31-.16,1.61-.08,3.98.33,7.08,1.23.5-.03,1.1.18,1.8.61.42,0,.83.24,1.25.72.29.03.99.62,2.11,1.75.87.79,1.62,1.71,2.25,2.78.19,0,.54.55,1.05,1.7.56,1.65.86,2.94.91,3.87.04,3.31-.14,4.97-.53,4.99-.19.99-.34,2.05-.46,3.19-.35.16-.82,1.15-1.42,2.97-.36.66-.69,1-1,1.02-.21.32-.55.63-1.01.93-.1,0-.58.38-1.44,1.13-1.51,1.24-2.56,1.88-3.15,1.91-.66.44-2.22.82-4.68,1.13-.67.26-1.27.4-1.82.43-.26.01-.64,0-1.14-.03-.41.07-.62.14-.62.21l-.18-.08c-.09,0-.17.22-.22.64,0,.11.04.16.1.16.02.45-.02,2.56-.13,6.33,0,.06.03.09.09.09l-.04,1.05.03.62c.07,1.34.04,3.65-.1,6.94-.06,0-.09.04-.08.09s.04.15.1.26l-.04.88.13.87c-.04,1.36-.1,2.39-.18,3.08h.09c-.2,0-.32,1.12-.37,3.35l.08,1.5c.02.39.07.73.14,1.03-.04.31-.05.68-.03,1.09.05,1.07.09,2.38.11,3.93-.38.79-.77,1.22-1.17,1.29-.04.1-.47.29-1.27.58,0,.06-.06.09-.17.1ZM470.05,498.87c.45-.25.66-.66.63-1.25.43-.02,1.1-.62,2.02-1.78.35-.22.69-.91,1.04-2.07.48-.03.83-1.21,1.05-3.57.12,0,.19-.44.2-1.31.15-.12.22-1.03.2-2.74l-.08-1.57c-.66-2.59-1.44-4.13-2.34-4.63-.46.02-.95.11-1.47.25-.24-.05-.45-.07-.63-.06-1.45.26-2.15,1-2.08,2.21.02.31,0,.57-.05.79.15.55.22.9.23,1.04v5.27c.11.12.22.59.34,1.39.06,0,.13.2.21.6l-.08.18.14,1.05c.04.71-.07,2.59-.32,5.64l.12.6c.19,0,.33-.04.42-.11l.45.07Z"/>
    <path class="cls-2" d="M506.72,528.71c-1.21-.12-2.3-.29-3.28-.53-.99-.04-2.74-.54-5.26-1.5-.09-.15-.47-.27-1.14-.37-1.65-.82-3.29-1.94-4.92-3.36,0-.11-.48-.76-1.42-1.95-1.04-2.09-1.59-3.93-1.67-5.53l-.41-2.71.06-.61-.12-.71c.03-.64.03-1.23,0-1.75-.13-.28-.23-.42-.29-.41l.04-1.06-.25-4.92c0-.2-.05-.46-.13-.78,0-.06.03-.09.08-.09-.08-.32-.12-.55-.12-.69-.08-1.63-.09-3-.03-4.12,0-.06-.04-.09-.09-.09.16-5.77.44-9.45.85-11.03.06,0,.09-.03.08-.09h-.09c.39-1.44.68-2.63.88-3.54.23-.12.44-.63.62-1.53.09,0,.27-.48.54-1.42.35-.61.57-.92.67-.93,0-.11.33-.49,1-1.14-.06-.02-.09-.06-.1-.12.14-.12.25-.19.33-.2l.81.05c.76-.28,1.5-.43,2.21-.47.67-.03,1.15-.03,1.45.02.37-.02,1.59-.23,3.67-.63l.52.06c.06,0,.09-.04.08-.1l.45.07.7-.04c.27-.01.47-.11.59-.28l.18.06,1.31-.14.52.04c.23-.12.55-.19.95-.21l.98-.05,3.79.42c.75-.04,1.64.36,2.69,1.19.24-.01.94.48,2.09,1.47,1.14,1.05,1.89,2.48,2.25,4.28.02.32.34,1.45.96,3.38.02.38.1.79.24,1.22,0,.06-.02.14-.08.25.09.6.15,1.14.17,1.62.01.2-.01.3-.07.31l.2.44c-.04.41-.05.74-.04,1,0,.17.04.3.11.4-.06.1-.08.21-.07.34.13.41.2.69.2.83.04.74.04,1.83,0,3.29.12.18.18.33.18.44.07,1.3.03,4.08-.1,8.35l.11.44c-.27,1.62-.44,3.53-.5,5.72-.23,1.41-.43,2.12-.61,2.14.02.49-.3,2.11-.99,4.88.02.43-.71,2.17-2.18,5.22.03.59-.57,1.47-1.8,2.63-1.93,1.44-3.71,2.21-5.33,2.29,0,.06-.25.1-.74.13-.39.02-.64.06-.74.13ZM503.8,522.98c.31-.53.73-1.43,1.27-2.71.15,0,.25-.37.29-1.07.54-2.18.89-3.4,1.05-3.64-.01-.25-.05-.48-.13-.71.25-2.29.49-3.44.7-3.45v-.18c-.04-.54-.09-1.1-.18-1.67l.56-4.76c-.03-.52-.02-.88.02-1.06-.05-.09-.08-.24-.09-.44.14-1.69.24-4.38.29-8.09l-.24-1.13h.09c0-.06-.03-.09-.09-.09.02-.79,0-1.74-.05-2.86-.05-.96-.11-1.64-.19-2.04l.08-.18c-.06-.09-.1-.21-.11-.35,0-.13.02-.24.07-.34l-.1-.17c0-.19.01-.34.07-.45-.03-.55-.3-1.96-.82-4.25-.05-.94-.52-2.06-1.4-3.36-.06,0-.15-.02-.27-.08l-.44.11c-.43-.1-.73-.14-.88-.13-1.08.65-1.6,1.26-1.57,1.83-.84,1-1.41,2.43-1.71,4.3-.22.31-.47,1.2-.74,2.68l-.16,2.12c.09.51.13.83.14.96-.32,4.3-.42,7.64-.3,10.02.14,1.66.26,2.71.34,3.14-.05.12-.08.21-.08.27.07.22.11.42.12.6l-.08.18c.07.12.1.2.1.26h-.09s.1.18.1.18l.2,3.94c.26.48.79,3.32,1.58,8.53,1.07,2.58,1.84,3.85,2.3,3.83,0,.08.13.17.37.25Z"/>
    <path class="cls-2" d="M530.71,479.01l-1.5-.26c-.18.07-.26.13-.26.19-.38-.15-.68-.31-.9-.49l-.71.04c-.38.02-.82-.13-1.33-.45-.1.06-.22.1-.35.11h-.09c0-.1-.18-.21-.53-.33,0-.07-.45-.25-1.35-.54-.61.03-1.08-1.2-1.42-3.68,0-.2.01-.3.07-.31-.07-.17-.18-.69-.35-1.55.12,0,.18-.04.17-.1,1.01.02,1.69.08,2.03.17l.17-.1.44.16,1.04-.23c.73.14,1.36.22,1.87.24.34-.05.51-.17.5-.36h.27s0,.16,0,.16l.45-.02c.3-.02,1.04.24,2.22.76.33-.02.65.29.94.92.33-.02.74,1.13,1.23,3.46.03.68-.27,1.13-.91,1.35-.01.24-.52.5-1.53.79,0,.05-.06.07-.17.08ZM533.08,532.47c-.54,0-.81-.05-.81-.14l-.17.1-.61-.06c0,.12-.08.18-.26.19-.14,0-.26-.08-.35-.25-.12.07-.2.1-.26.1l-1.07-.29-.53.12-.61-.06-.45.02c0-.19-.31-.35-.9-.49,0-.06-.27-.19-.81-.39l-.17.08c-.78-.31-1.18-.78-1.22-1.42-.17,0-.38-2-.64-6.03-.07-.12-.1-.2-.1-.26.05-.11.08-.23.07-.36,0-.06-.03-.09-.09-.09l.06-.61-.05-.96c0-.06.03-.09.08-.09l-.1-.17-.17-3.42-.12-.51c.05-.1.07-.43.04-.99-.03-.58-.08-.98-.15-1.21.05-.23.07-.46.05-.7-.02-.37-.07-.8-.16-1.31l.06-.61c-.17-.99-.28-2.07-.34-3.23.07-5.53.08-8.58.06-9.15,0-.05-.03-.07-.09-.07.06-1.18.08-2.54.06-4.06h-.09c.05-.11.08-.19.08-.25,0-.13-.04-.25-.11-.35.04-.32.05-.69.03-1.11-.02-.37,0-.55.06-.56l-.11-.44-.04-.87c-.05-1.04-.03-1.72.08-2.02l-.1-.17c.1-2.83.2-4.68.33-5.56l-.05-.96c.25-.01.48-.12.7-.3l.44.25h.09s.34-.36.34-.36l.37.32h.25c.21-.2.41-.3.61-.31.58.09.9.13.97.13l.26-.19h.25s.28.15.28.15c.36-.14.59-.21.69-.21l.63.06c.23-.12.4-.18.51-.19.87-.04,2.02.22,3.47.79,0,.07.46.45,1.38,1.15.07.24.17,1,.29,2.27l-.06.54.12.51c-.02.89,0,1.75.04,2.55.01.26.06.55.13.87l-.21,1.24.1.18c-.04.32-.06.55-.05.7.14.52.22.89.24,1.13l.11,2.19-.07,2.2.12.51c-.08.71-.15,1.06-.21,1.06.13.29.21.52.21.69l-.07.36c0,.06.04.15.1.26-.07.91-.07,2.13,0,3.68.01.26-.03.53-.14.81.08.31.12.6.13.87-.11.36-.16,1.18-.14,2.46-.05,0-.1.12-.16.37,0,.06.03.09.09.08,0,.08-.03.41-.11.97l.1.51c-.1.66-.17.99-.2.99.13.23.2.4.2.51l-.02,1.32c0,.12.04.18.1.17l-.06.61.15,2.89c.04.76.05,1.55.03,2.38l.28,1.92c-.11.24-.16.45-.15.63l.12.6-.06.52c0,.06.03.09.09.08l-.07.36.23,2.71c0,.07-.02.16-.08.27l.12.53.06,1.21c-.25.01-.41.37-.48,1.08-.33.25-.62.39-.86.4-.05.1-.08.25-.07.45l-.43.02c-.16.16-.45.29-.87.38,0,.18-.04.27-.15.28Z"/>
    <path class="cls-2" d="M560.31,526.8l-.7-.05c-.76.1-1.37.16-1.83.18l-.36-.07c-.09.06-.24.1-.44.11l-2.46-.21-.53.1c-.06,0-.09-.02-.09-.07l-.42.09-.45.02c-.13,0-.24-.01-.34-.05-.12.05-.2.08-.26.08-1.85-.25-3.01-.54-3.47-.88-.46.32-.77.49-.94.5,0-.16-.43-.28-1.25-.38-.18.13-.35.2-.51.21-.55-.09-.88-.13-.97-.13-.12.06-.2.1-.26.1-.01-.21-.46-.37-1.35-.45,0-.06-.13-.14-.37-.25l-.42.11c-.66-.4-1-.72-1.01-.98-.01-.26-.2-.99-.56-2.19l-.36-1.82c0-2.23.03-3.49.08-3.78-.07-.23-.11-.44-.12-.62.08-.68.14-2,.16-3.96.07,0,.14-.36.21-1.06-.3-3.5-.64-6.73-1.03-9.7,0-.06.03-.09.08-.09l-.13-.87-.02-.34c-.04-.87-.07-2.04-.09-3.51h.09s-.1-.18-.1-.18c.02-.7.06-1.09.12-1.15,0-.06-.03-.09-.09-.08,0-.97.06-1.75.15-2.37,0-.2-.05-.35-.11-.44l.09-3.52c0-.06-.03-.09-.09-.08.03-2.03.05-3.13.08-3.33,0-.06-.03-.09-.08-.09l.08-1.68c0-.06-.04-.14-.1-.25l.08-1.86-.1-.17c.08-.75.1-1.49.07-2.2.14-.7.21-1.14.2-1.31,0-.06-.04-.15-.1-.26.04-.38.05-1.32.04-2.81l-.12-.53c.68-.41,1.31-.65,1.89-.7.18,0,.27.08.28.25h.09s.32-.47.32-.47c.42.1.66.14.72.14.12,0,.17-.07.17-.19l.61.06.86-.31h.18c.14.09.52.19,1.16.29.03-.18.25-.28.68-.3l.53-.03c.29-.01.67.12,1.16.39.65-.03,1.44.57,2.36,1.81.14.43.22.84.24,1.22,0,.2,0,.46-.05.79.08.3.12.6.13.87l-.04.88c.06.23.12.35.2.35,0,2.2.01,3.78.06,4.73l.12.62c-.05.29-.1.43-.16.44l.11.44-.06.52c.08.32.12.64.14.96-.09.63-.12,1.15-.1,1.54.01.27,0,.41-.05.41.04.07.06.17.07.3v.48c0,.17.02.29.06.36.05,1.9-.02,3.87-.22,5.89.06.34.13.51.2.51-.05,1.34-.09,3.57-.11,6.69.12,1.24.31,2.55.56,3.92l-.43.29.34,3.23-.07.34c.08.32.12.64.14.97-.02,1.9-.09,3.39-.2,4.48,0,.06.03.09.09.09l-.06.63.04.87.1.17c.38-.02,2.78-.58,7.2-1.69.27-.07.67-.12,1.21-.15,1.54.22,2.31.5,2.33.85.48.15.85.43,1.1.82l.36.07-.08.18c.02.2.45.56,1.29,1.08.01.22.22.39.63.49l.73.59c.26.54.49.9.68,1.11l-.07.43c.01.21.17.41.48.6v.16c-.39.34-.58.68-.57,1.01-.56.7-1.9,1.35-4.03,1.95.01.25-1.06.54-3.21.86Z"/>
    <path class="cls-2" d="M586.47,532.14c-.32-.04-.56-.06-.7-.05l-2.63.22-.52-.06c-.31.07-.65.12-1.05.14-.81.04-1.88-.35-3.22-1.16-.59.03-.98-.07-1.16-.3-.58.12-.86.23-.86.31-.63-.19-.99-.29-1.07-.28l-.17.08c-1.12-.2-1.84-.53-2.16-1.02,0-.1-.28-.2-.82-.31,0-.07-.55-.6-1.65-1.6-.93-2.09-1.45-4.22-1.56-6.41-.06,0-.09-.02-.09-.08.05-.24.07-.45.06-.63,0-.14-.08-.43-.22-.86h.09s-.1-.18-.1-.18v-.16c-.08-1.32-.17-2.13-.29-2.45l.05-.36c-.12-1.51-.2-2.53-.23-3.06,0-.12.01-.18.06-.18l-.1-.6-.33-6.49c0-.13-.04-.24-.11-.33.05-.11.08-.26.07-.45-.01-.29-.06-.63-.14-1.05,0-.13.02-.25.07-.36-.09-.63-.17-1.63-.24-3.01-.05-.96-.1-1.44-.16-1.44.05-.11.1-.38.14-.81-.11-.97-.19-1.49-.26-1.56l.11-1.33-.11-.35c-.04-1.97-.03-3.32.04-4.04,0-.06-.03-.09-.09-.08l-.09-8.77-.1-.17.39-5.99-.12-.96c.52-.06.77-.28.75-.66.31-.02.8-.07,1.47-.16,0,.07.22.18.64.33h.09c-.02-.34.14-.55.49-.64.08-.65.18-.97.31-.98.37.27.64.39.81.39.45-.02,1.27-.09,2.45-.21l.18.08c.37-.13,1.33-.24,2.88-.32l1.05-.05.87-.13v.09c.05-.06.78-.18,2.18-.36,1.24.2,1.87.63,1.91,1.3.67.46,1.01.91,1.03,1.36.25-.01.66.49,1.22,1.51,1.24,1.33,1.87,2.41,1.92,3.24.12,0,.22.31.32.95-.05.12-.08.21-.08.27.08,0,.18.08.28.25l-.36,1.68c.01.27-1.38.52-4.18.75-.05,0-.28-.07-.71-.23-1.03.11-1.87.18-2.53.22l-.35.11v.25c.02.13.05.25.12.35-.05.12-.08.21-.08.27.1.73.18,1.14.24,1.22-.15.64-.26,1.32-.34,2.04,0,.11.08.3.21.6-.04.41-.05.73-.04.97l.12.62c-.22.39-.32.78-.3,1.16.13.17.2.31.2.42,0,1.25-.04,2.13-.13,2.65.07.31.12.57.13.78l-.02,1.32h.09s-.15.52-.15.52l.12.53v.16c1.2.06,1.97.14,2.31.24v-.09c.85-.04,1.37.25,1.54.89.37.56.56.94.57,1.11l-.07.45c.12,0,.18.05.19.15l.17-.08.28.15-.07.45v.27s1.25,1.87,1.25,1.87l.02.36c0,.15-.04.33-.15.53.15,0,.29.22.39.68.01.29-.12.53-.41.74l-.08.18c.15.1.27.15.36.14v.09c.03.42-.2.63-.68.66-.76.56-1.33.85-1.71.87-.56-.09-.98-.13-1.24-.12l-.33.11-.18-.08c-.4.08-.72.13-.96.14l-.45.02c-.08,0-.17.1-.25.28l.02.34c.02.4,0,.76-.04,1.05.08.31.12.66.14,1.05.02.38-.01.79-.1,1.24,0,.06.03.15.08.26-.03.32-.04.59-.03.79l.04.78-.17.28c.17,1.03.28,1.58.33,1.66-.03.31-.04.57-.03.79.03.63.08,1.15.15,1.56-.02.28-.02.58,0,.93l.08.78c0,.14,0,.21-.04.22l.09.44c.01.21,0,.48-.03.79.13.36.19.6.2.71-.04.3-.06.59-.04.88v.18c.02.17.35.23,1,.2l.52-.03,3.14-.5.18.08c.06,0,.09-.04.08-.09.55.04.9.09,1.06.12l1.55-.35c1.07.29,1.62.67,1.65,1.15.77.64,1.18,1.11,1.22,1.42.61.45.92.78.93,1.01.79.65,1.2,1.13,1.22,1.44.07,0,.29.34.66,1.02l-.08.18c.18.48.31.73.4.77-.05.41-.19.62-.42.63l.04.78-1.91.46-.43.02c-.06,0-.09.03-.08.09l-.18-.08-2.11.02-3.14.52Z"/>
    <path class="cls-2" d="M619.3,524.35c-.2-.11-.35-.16-.45-.16-.3.02-.44.08-.44.2-.76-.16-1.23-.29-1.41-.38l-.62.03c-.02-.31-.58-.57-1.7-.79l-1.46-.98c-1.08.05-2.13-3.44-3.16-10.47l-.04-.7c.11-.2.16-.44.14-.72-.02-.38-.19-.81-.51-1.28,0-.1-.08-.36-.22-.79.1-.29.19-.44.25-.44-.4-1.11-.61-1.8-.62-2.08l-.02-.36.13-.61c-.59-3.63-1.02-5.8-1.3-6.53l.04-.88-.6-3.4.08-.18c-.07-1.45-.32-2.16-.73-2.14-.37.02-1.26-.2-2.66-.67,0,.06-.02.09-.08.09,0,.06.03.09.09.08v3.7s-.08,0-.08,0c.13.24.21.7.25,1.38l.06,1.23-.06.54c.06.09.1.23.11.42v.09s-.06.54-.06.54l.1.15c-.04.5-.04.98-.02,1.45.02.36.06.69.14,1.01,0,.06-.03.09-.08.09l.3,2.45-.06.61c.21,1.87.34,3.27.39,4.2l-.07.36.1.16c0,.12-.02.18-.08.18.17,1.91.31,3.08.43,3.5l-.06.52c.11,2.16.33,4.21.67,6.13.01.23-.04.34-.16.35.14.36.22.92.26,1.67-.28.86-.77,1.5-1.47,1.91-.3.25-.95.46-1.95.62-.36.02-.67-.08-.94-.29-.06,0-.14.04-.25.1-.26.01-.71-.05-1.33-.2l-.17.1-.99-.4-.35.2c-.43-.32-.76-.48-.99-.47,0-.06-.12-.14-.35-.25h-.18c-.18.2-.32.29-.43.3-.07,0-.25-.2-.55-.6-.58.03-.89-.28-.92-.92-.43.02-.92-3.88-1.49-11.7l-1.13-8.46c.11-.2.16-.37.15-.53l-.02-.45-.31-.86-.08-1.48c.13-.94.2-1.44.19-1.51-.11-.33-.23-.82-.34-1.46.04-.31.06-.66.04-1.06-.25-.24-.38-.53-.4-.87l-.03-.52.14-.71c-.18-.28-.28-.68-.31-1.21-.07-1.36-.19-2.55-.36-3.59.1-.29.18-.44.23-.44l-.09-.44-.05-1.05c-.21.01-.46-1.41-.75-4.27.05-.23.06-.52.04-.88-.02-.39-.07-.74-.14-1.05.31-3.53.83-5.31,1.57-5.35.33-.75,1.11-1.53,2.35-2.31,2.08-1.74,4.28-2.67,6.61-2.78,0-.05.11-.11.35-.2l.61.06c.65-.03,1.99-.28,4.02-.74,1.97-.1,3.83.16,5.56.77.52.12,1.88.9,4.08,2.35,1.95,1.76,3.1,3.19,3.45,4.29.78,1.47,1.23,3.42,1.35,5.83-.36.97-.52,1.62-.51,1.96-.23.02-.69.72-1.39,2.09-.23.01-.67.45-1.33,1.3-.11,0-.16.15-.16.44.01.29.21.66.58,1.12l.72,3.66c0,.06-.02.14-.08.25.08.33.12.56.12.71,0,.06-.02.15-.08.27.21.72.43,2.02.64,3.92l-.07.43,1.21,6.62-.08.18c.44,1.83.72,3.46.85,4.87,0,.06-.02.09-.08.09l.12.6.02.45c.04.75.13,1.51.29,2.27l-.07.34c.08.39.13.77.15,1.14l-.06.54.7,3.31c-.06.1-.08.24-.07.43.29,1.51.5,2.26.63,2.25-.06,1.18-.14,1.83-.24,1.94.07.12.1.2.1.26-1.04.47-1.55.82-1.54,1.04h-.18c-.46.03-.92.17-1.37.44ZM603.37,485.64c.5-.03,1.33-.34,2.51-.93.67-.83,1.35-1.39,2.02-1.67.97-1.13,1.54-1.98,1.71-2.55-.12-.46-.22-.69-.3-.68.11-.18.17-.66.2-1.42-.11-2.1-.79-3.88-2.04-5.34l-.43-.05c-.46.08-1.54.81-3.23,2.18-.81,1.41-1.16,3.13-1.06,5.15-.06,0-.08.12-.07.34l.61,4.99h.09Z"/>
    <path class="cls-2" d="M628.72,524.46c-.87-.4-1.53-.74-1.98-1.04-.02-.31-.23-.48-.63-.5l-.35.11c-.07-.21-.71-.64-1.91-1.29-.26-.44-.44-1.07-.54-1.9-.05-1.04.53-3.5,1.74-7.36.48-.85,1.13-1.29,1.95-1.33l1.54-.69c.36-.21,1.08-.42,2.17-.63l1.59.35c.83.08,1.25.25,1.26.52.01.27.17.51.47.72.32.47.49.93.52,1.37.01.24-.22,1.48-.69,3.71.05,1.07-.06,2.36-.34,3.88l.12.6c-.5,2.13-1.84,3.26-4.03,3.37l-.87.13Z"/>
  </g>
</svg>